<?xml version="1.0" encoding="UTF-8" standalone="no"?>
<!-- Generator: Adobe Illustrator 27.5.0, SVG Export Plug-In . SVG Version: 6.00 Build 0)  -->

<svg
   version="1.1"
   id="Capa_1"
   x="0px"
   y="0px"
   viewBox="0 0 199.99999 199.99999"
   xml:space="preserve"
   sodipodi:docname="E-book.svg"
   width="200"
   height="200"
   inkscape:version="1.3.2 (091e20e, 2023-11-25, custom)"
   xmlns:inkscape="http://www.inkscape.org/namespaces/inkscape"
   xmlns:sodipodi="http://sodipodi.sourceforge.net/DTD/sodipodi-0.dtd"
   xmlns="http://www.w3.org/2000/svg"
   xmlns:svg="http://www.w3.org/2000/svg"><defs
   id="defs80" /><sodipodi:namedview
   id="namedview80"
   pagecolor="#ffffff"
   bordercolor="#999999"
   borderopacity="1"
   inkscape:showpageshadow="2"
   inkscape:pageopacity="0"
   inkscape:pagecheckerboard="0"
   inkscape:deskcolor="#d1d1d1"
   inkscape:zoom="1.0089369"
   inkscape:cx="211.60887"
   inkscape:cy="211.60887"
   inkscape:window-width="1366"
   inkscape:window-height="715"
   inkscape:window-x="-8"
   inkscape:window-y="-8"
   inkscape:window-maximized="1"
   inkscape:current-layer="Capa_1"
   inkscape:lockguides="true"><sodipodi:guide
     position="0,199.99999"
     orientation="0,200"
     id="guide1"
     inkscape:locked="true" /><sodipodi:guide
     position="199.99999,199.99999"
     orientation="200,0"
     id="guide2"
     inkscape:locked="true" /><sodipodi:guide
     position="199.99999,0"
     orientation="0,-200"
     id="guide3"
     inkscape:locked="true" /><sodipodi:guide
     position="0,0"
     orientation="-200,0"
     id="guide4"
     inkscape:locked="true" /></sodipodi:namedview>
<radialGradient
   id="SVGID_1_"
   cx="212.6006"
   cy="903.14319"
   r="161.1241"
   gradientTransform="matrix(1,0,0,2.5927,0,-2128.6592)"
   gradientUnits="userSpaceOnUse">
	<stop
   offset="0"
   style="stop-color:#FFFFFF"
   id="stop1" />
	<stop
   offset="1"
   style="stop-color:#C5C5C5"
   id="stop2" />
</radialGradient>

<rect
   style="fill:#ffffff;stroke-width:7.80476;stroke-linecap:round;stroke-linejoin:round"
   id="rect83"
   width="200"
   height="200"
   x="0"
   y="3.0000001e-06" />

<g
   id="g83"
   transform="translate(-32.128307,-19.521127)"><g
     id="g19"
     transform="matrix(0.43042156,0,0,0.43042156,38.250386,27.975414)"
     style="stroke-width:2.3233">
	<g
   id="g6"
   style="stroke-width:2.3233">
		<path
   style="fill:#2b3b5b;stroke-width:2.3233"
   d="M 171.838,346.497 H 153.26 c 0.268,1.638 0.984,2.941 2.15,3.908 1.164,0.967 2.65,1.451 4.459,1.451 2.16,0 4.018,-0.755 5.57,-2.267 l 4.873,2.288 c -1.215,1.723 -2.67,2.998 -4.365,3.824 -1.693,0.826 -3.707,1.239 -6.037,1.239 -3.615,0 -6.559,-1.141 -8.832,-3.421 -2.275,-2.28 -3.412,-5.137 -3.412,-8.568 0,-3.517 1.135,-6.437 3.4,-8.759 2.268,-2.323 5.109,-3.485 8.527,-3.485 3.629,0 6.58,1.162 8.854,3.485 2.273,2.323 3.41,5.391 3.41,9.204 z m -5.783,-4.555 c -0.383,-1.285 -1.137,-2.33 -2.262,-3.135 -1.123,-0.805 -2.428,-1.207 -3.914,-1.207 -1.613,0 -3.027,0.452 -4.244,1.355 -0.764,0.565 -1.471,1.561 -2.121,2.987 z"
   id="path2" />
		<path
   style="fill:#2b3b5b;stroke-width:2.3233"
   d="m 177.154,356.347 v -31.161 h 4.898 c 2.842,0 4.922,0.184 6.236,0.551 1.867,0.494 3.352,1.412 4.453,2.754 1.104,1.342 1.654,2.923 1.654,4.745 0,1.187 -0.25,2.264 -0.752,3.23 -0.5,0.968 -1.316,1.875 -2.445,2.722 1.893,0.89 3.275,2.002 4.15,3.336 0.877,1.335 1.314,2.913 1.314,4.734 0,1.751 -0.453,3.347 -1.357,4.788 -0.904,1.44 -2.07,2.518 -3.498,3.23 -1.43,0.713 -3.4,1.07 -5.918,1.07 h -8.735 z m 5.932,-25.505 v 6.567 h 1.297 c 1.445,0 2.52,-0.304 3.221,-0.911 0.703,-0.607 1.053,-1.434 1.053,-2.479 0,-0.975 -0.332,-1.747 -1,-2.32 -0.666,-0.572 -1.68,-0.858 -3.039,-0.858 h -1.532 z m 0,11.863 v 7.986 h 1.486 c 2.463,0 4.125,-0.311 4.98,-0.932 0.857,-0.622 1.285,-1.525 1.285,-2.711 0,-1.342 -0.502,-2.401 -1.508,-3.178 -1.006,-0.776 -2.676,-1.165 -5.014,-1.165 z"
   id="path3" />
		<path
   style="fill:#2b3b5b;stroke-width:2.3233"
   d="m 212.51,332.707 c 2.174,0 4.219,0.544 6.133,1.631 1.912,1.088 3.406,2.564 4.48,4.428 1.072,1.864 1.609,3.876 1.609,6.037 0,2.175 -0.541,4.209 -1.621,6.101 -1.08,1.893 -2.553,3.372 -4.416,4.438 -1.865,1.066 -3.92,1.6 -6.164,1.6 -3.305,0 -6.127,-1.176 -8.463,-3.527 -2.338,-2.351 -3.506,-5.207 -3.506,-8.568 0,-3.602 1.32,-6.602 3.961,-9.003 2.317,-2.092 4.979,-3.137 7.987,-3.137 z m 0.095,5.443 c -1.797,0 -3.293,0.625 -4.488,1.875 -1.195,1.25 -1.793,2.849 -1.793,4.798 0,2.006 0.59,3.63 1.771,4.873 1.182,1.243 2.678,1.864 4.488,1.864 1.811,0 3.316,-0.628 4.52,-1.885 1.201,-1.257 1.803,-2.873 1.803,-4.851 0,-1.977 -0.59,-3.583 -1.771,-4.819 -1.182,-1.236 -2.692,-1.855 -4.53,-1.855 z"
   id="path4" />
		<path
   style="fill:#2b3b5b;stroke-width:2.3233"
   d="m 240.281,332.707 c 2.174,0 4.219,0.544 6.133,1.631 1.912,1.088 3.406,2.564 4.481,4.428 1.072,1.864 1.609,3.876 1.609,6.037 0,2.175 -0.541,4.209 -1.621,6.101 -1.08,1.893 -2.553,3.372 -4.416,4.438 -1.865,1.066 -3.92,1.6 -6.164,1.6 -3.305,0 -6.127,-1.176 -8.463,-3.527 -2.338,-2.351 -3.506,-5.207 -3.506,-8.568 0,-3.602 1.32,-6.602 3.961,-9.003 2.316,-2.092 4.978,-3.137 7.986,-3.137 z m 0.096,5.443 c -1.797,0 -3.293,0.625 -4.488,1.875 -1.195,1.25 -1.793,2.849 -1.793,4.798 0,2.006 0.59,3.63 1.771,4.873 1.182,1.243 2.678,1.864 4.488,1.864 1.811,0 3.316,-0.628 4.52,-1.885 1.201,-1.257 1.803,-2.873 1.803,-4.851 0,-1.977 -0.59,-3.583 -1.771,-4.819 -1.182,-1.236 -2.692,-1.855 -4.53,-1.855 z"
   id="path5" />
		<path
   style="fill:#2b3b5b;stroke-width:2.3233"
   d="m 257.27,324.403 h 5.783 v 18.399 l 8.516,-9.502 h 7.264 l -9.93,11.046 11.115,12.001 h -7.178 l -9.787,-10.622 v 10.622 h -5.783 z"
   id="path6" />
	</g>
	<g
   id="g18"
   style="stroke-width:2.3233">
		<path
   style="fill:#2b3b5b;stroke-width:2.3233"
   d="m 146.422,364.169 h 5.854 v 2.189 h -3.625 v 2.141 h 3.625 v 2.157 h -3.625 v 5.308 h -2.229 z"
   id="path7" />
		<path
   style="fill:#2b3b5b;stroke-width:2.3233"
   d="m 154.424,364.169 h 2.379 c 1.303,0 2.23,0.116 2.783,0.349 0.553,0.232 0.996,0.619 1.332,1.159 0.338,0.54 0.506,1.178 0.506,1.916 0,0.775 -0.186,1.423 -0.557,1.944 -0.373,0.522 -0.932,0.915 -1.68,1.183 l 2.793,5.244 h -2.453 l -2.652,-4.995 h -0.207 v 4.995 h -2.244 z m 2.244,4.611 h 0.705 c 0.713,0 1.205,-0.094 1.475,-0.282 0.268,-0.188 0.402,-0.499 0.402,-0.933 0,-0.257 -0.066,-0.481 -0.199,-0.672 -0.133,-0.19 -0.313,-0.327 -0.535,-0.41 -0.225,-0.083 -0.635,-0.125 -1.23,-0.125 h -0.617 v 2.422 z"
   id="path8" />
		<path
   style="fill:#2b3b5b;stroke-width:2.3233"
   d="m 163.805,364.169 h 6.439 v 2.197 h -4.211 v 2.133 h 4.211 v 2.157 h -4.211 v 3.103 h 4.211 v 2.205 h -6.439 z"
   id="path9" />
		<path
   style="fill:#2b3b5b;stroke-width:2.3233"
   d="m 172.344,364.169 h 6.439 v 2.197 h -4.211 v 2.133 h 4.211 v 2.157 h -4.211 v 3.103 h 4.211 v 2.205 h -6.439 z"
   id="path10" />
		<path
   style="fill:#2b3b5b;stroke-width:2.3233"
   d="m 180.965,375.964 v -11.795 h 2.445 c 1.764,0 3.043,0.142 3.84,0.425 1.145,0.401 2.039,1.096 2.682,2.085 0.645,0.989 0.967,2.168 0.967,3.536 0,1.182 -0.256,2.221 -0.766,3.119 -0.51,0.898 -1.174,1.561 -1.988,1.988 -0.815,0.428 -1.957,0.642 -3.428,0.642 z m 1.129,-1.114 h 1.363 c 1.631,0 2.762,-0.101 3.392,-0.304 0.887,-0.289 1.584,-0.808 2.092,-1.558 0.508,-0.751 0.762,-1.668 0.762,-2.752 0,-1.138 -0.275,-2.11 -0.824,-2.916 -0.551,-0.807 -1.318,-1.359 -2.303,-1.659 -0.736,-0.224 -1.953,-0.336 -3.648,-0.336 h -0.834 z"
   id="path11" />
		<path
   style="fill:#2b3b5b;stroke-width:2.3233"
   d="m 198.801,363.873 c 1.787,0 3.281,0.596 4.484,1.788 1.203,1.192 1.805,2.659 1.805,4.402 0,1.727 -0.6,3.191 -1.801,4.394 -1.201,1.203 -2.664,1.804 -4.393,1.804 -1.748,0 -3.225,-0.599 -4.428,-1.796 -1.205,-1.197 -1.807,-2.646 -1.807,-4.346 0,-1.133 0.275,-2.184 0.822,-3.151 0.549,-0.967 1.297,-1.725 2.242,-2.273 0.949,-0.548 1.974,-0.822 3.076,-0.822 z m 0.053,1.147 c -0.873,0 -1.701,0.228 -2.483,0.682 -0.781,0.455 -1.392,1.067 -1.832,1.837 -0.438,0.771 -0.658,1.629 -0.658,2.576 0,1.401 0.486,2.586 1.459,3.551 0.971,0.966 2.143,1.448 3.514,1.448 0.914,0 1.762,-0.222 2.541,-0.666 0.779,-0.444 1.387,-1.051 1.822,-1.821 0.438,-0.771 0.654,-1.627 0.654,-2.568 0,-0.936 -0.217,-1.783 -0.654,-2.54 -0.436,-0.757 -1.051,-1.362 -1.842,-1.817 -0.793,-0.455 -1.633,-0.682 -2.521,-0.682 z"
   id="path12" />
		<path
   style="fill:#2b3b5b;stroke-width:2.3233"
   d="m 206.791,364.169 h 1.211 l 2.408,8.5 3.383,-8.5 h 0.244 l 3.342,8.5 2.451,-8.5 h 1.201 l -3.389,11.795 h -0.219 l -3.5,-8.924 -3.568,8.924 h -0.221 z"
   id="path13" />
		<path
   style="fill:#2b3b5b;stroke-width:2.3233"
   d="m 223.229,375.964 v -11.795 h 0.256 l 7.85,9.042 v -9.042 h 1.162 v 11.795 h -0.264 l -7.785,-8.931 v 8.931 z"
   id="path14" />
		<path
   style="fill:#2b3b5b;stroke-width:2.3233"
   d="m 235.367,364.169 h 1.18 v 10.656 h 4.537 v 1.139 h -5.717 z"
   id="path15" />
		<path
   style="fill:#2b3b5b;stroke-width:2.3233"
   d="m 248.568,363.873 c 1.787,0 3.281,0.596 4.486,1.788 1.203,1.192 1.805,2.659 1.805,4.402 0,1.727 -0.6,3.191 -1.801,4.394 -1.201,1.203 -2.666,1.804 -4.392,1.804 -1.75,0 -3.227,-0.599 -4.43,-1.796 -1.203,-1.197 -1.805,-2.646 -1.805,-4.346 0,-1.133 0.273,-2.184 0.822,-3.151 0.549,-0.967 1.295,-1.725 2.242,-2.273 0.948,-0.548 1.972,-0.822 3.073,-0.822 z m 0.053,1.147 c -0.873,0 -1.699,0.228 -2.482,0.682 -0.781,0.455 -1.391,1.067 -1.83,1.837 -0.439,0.771 -0.658,1.629 -0.658,2.576 0,1.401 0.486,2.586 1.457,3.551 0.973,0.966 2.143,1.448 3.514,1.448 0.916,0 1.764,-0.222 2.541,-0.666 0.779,-0.444 1.387,-1.051 1.824,-1.821 0.436,-0.771 0.654,-1.627 0.654,-2.568 0,-0.936 -0.219,-1.783 -0.654,-2.54 -0.438,-0.757 -1.051,-1.362 -1.844,-1.817 -0.793,-0.455 -1.633,-0.682 -2.522,-0.682 z"
   id="path16" />
		<path
   style="fill:#2b3b5b;stroke-width:2.3233"
   d="m 262.043,364.169 5.502,11.795 h -1.273 l -1.855,-3.881 h -5.082 l -1.836,3.881 h -1.316 l 5.574,-11.795 z m -0.148,2.507 -2.021,4.269 h 4.033 z"
   id="path17" />
		<path
   style="fill:#2b3b5b;stroke-width:2.3233"
   d="m 269.373,375.964 v -11.795 h 2.445 c 1.764,0 3.043,0.142 3.84,0.425 1.145,0.401 2.039,1.096 2.682,2.085 0.645,0.989 0.967,2.168 0.967,3.536 0,1.182 -0.256,2.221 -0.766,3.119 -0.51,0.898 -1.174,1.561 -1.988,1.988 -0.814,0.428 -1.957,0.642 -3.428,0.642 z m 1.129,-1.114 h 1.363 c 1.631,0 2.762,-0.101 3.393,-0.304 0.887,-0.289 1.584,-0.808 2.092,-1.558 0.508,-0.751 0.762,-1.668 0.762,-2.752 0,-1.138 -0.275,-2.11 -0.824,-2.916 -0.551,-0.807 -1.318,-1.359 -2.303,-1.659 -0.736,-0.224 -1.953,-0.336 -3.648,-0.336 h -0.834 v 9.525 z"
   id="path18" />
	</g>
</g><path
     style="fill:#a7a9ac;stroke-width:0.999998"
     d="M 183.99457,113.46962 V 57.912525 l -1.83661,0.795849 c -0.0426,-0.08178 -0.10502,-0.151508 -0.18766,-0.192398 -0.70632,-0.354668 -1.24823,-0.764429 -1.83962,-0.894416 -0.0323,-0.03486 -0.0697,-0.06456 -0.11321,-0.08652 -0.70201,-0.351654 -1.24219,-0.759264 -1.82929,-0.891833 -0.034,-0.03831 -0.0727,-0.07188 -0.11922,-0.09555 -0.70503,-0.353807 -1.24607,-0.763137 -1.83704,-0.893555 -0.0336,-0.03745 -0.0714,-0.07059 -0.11751,-0.0934 -0.70933,-0.355528 -1.25339,-0.767872 -1.84866,-0.896137 -0.0318,-0.03443 -0.0689,-0.0637 -0.11191,-0.08522 -0.69341,-0.34778 -1.22885,-0.749364 -1.80863,-0.886668 -0.0357,-0.04304 -0.0771,-0.08178 -0.12827,-0.107606 -0.16442,-0.08221 -0.31894,-0.167864 -0.46829,-0.252227 v -1.993282 l -15.64798,6.76967 c -0.38178,-0.217362 -0.73172,-0.407178 -1.10059,-0.488098 -0.0323,-0.03486 -0.0693,-0.06456 -0.11277,-0.08651 -0.70159,-0.351655 -1.24176,-0.759264 -1.82929,-0.891834 -0.0336,-0.03831 -0.0723,-0.07231 -0.11923,-0.09555 -0.70503,-0.353807 -1.2465,-0.763138 -1.83704,-0.893556 -0.034,-0.03745 -0.0723,-0.07059 -0.11836,-0.0934 -0.70934,-0.355959 -1.25339,-0.768303 -1.84866,-0.896138 -0.0323,-0.034 -0.0689,-0.06327 -0.11191,-0.08479 -0.69298,-0.34735 -1.22843,-0.748072 -1.80648,-0.886238 -0.0362,-0.04347 -0.0775,-0.08221 -0.1287,-0.108036 -0.16485,-0.08264 -0.32023,-0.168294 -0.47002,-0.252657 v -1.992852 l -15.2946,6.616871 c -0.27891,-0.150217 -0.5462,-0.273748 -0.82425,-0.334868 -0.0323,-0.03486 -0.0693,-0.06499 -0.11278,-0.08695 -0.70287,-0.352085 -1.24305,-0.760125 -1.83101,-0.891834 -0.0344,-0.03831 -0.0727,-0.07188 -0.11923,-0.09555 -0.7046,-0.353807 -1.24607,-0.762707 -1.83574,-0.893556 -0.034,-0.03745 -0.0719,-0.07059 -0.11794,-0.0934 -0.66844,-0.334868 -1.19011,-0.719234 -1.74536,-0.870312 -0.037,-0.04476 -0.0788,-0.08479 -0.13128,-0.111049 -0.69255,-0.34735 -1.22842,-0.748503 -1.80648,-0.886238 -0.0362,-0.04347 -0.0775,-0.08178 -0.12869,-0.107606 -0.16485,-0.08264 -0.31937,-0.167864 -0.46916,-0.252227 V 51.339988 L 70.408472,73.746443 v 0.376188 c -0.08565,0.03702 -0.171308,0.07403 -0.257392,0.111049 -0.230276,0.09943 -0.297421,0.288813 -0.259975,0.471312 -0.0073,0.160977 0.06629,0.320664 0.259975,0.417508 0.07231,0.03616 0.142039,0.07274 0.210906,0.109758 l 0.009,54.383332 -0.01593,23.9323 0.0198,-0.009 4.31e-4,1.8237 11.695414,5.81413 v 0.003 l 0.0034,-0.001 0.0034,0.001 v -0.003 l 13.043925,-5.65057 11.365714,5.65014 v 0.003 l 0.003,-0.001 0.003,0.001 v -0.003 l 13.42787,-5.81714 v 0.003 l 11.69627,5.81413 v 0.003 l 0.003,-0.001 0.003,0.001 v -0.003 l 20.16137,-8.73411 c 4.70365,5.47668 11.63946,8.96267 19.49121,9.12149 14.2702,0.28882 25.54036,-11.98465 25.82013,-25.81969 0.19455,-9.59066 -5.28816,-17.82032 -13.10332,-22.27561 z"
     id="path19" /><g
     id="g80"
     transform="matrix(0.43042156,0,0,0.43042156,38.250386,27.975414)"
     style="stroke-width:2.3233">
	<g
   id="g79"
   style="stroke-width:2.3233">
		<g
   id="g76"
   style="stroke-width:2.3233">
			<g
   id="g39"
   style="stroke-width:2.3233">
				<polygon
   style="fill:#34507b;stroke-width:2.3233"
   points="188.711,236.325 68.258,286.575 68.381,101.173 188.711,49.116 "
   id="polygon19" />
				<g
   id="g20"
   style="stroke-width:2.3233">
					<polygon
   style="fill:#34507b;stroke-width:2.3233"
   points="95.477,304.309 95.477,117.104 217.16,64.387 217.16,251.595 "
   id="polygon20" />
				</g>
				<polygon
   style="fill:#ffffff;stroke-width:2.3233"
   points="201.396,162.425 116.168,199.345 116.168,137.246 201.396,100.326 "
   id="polygon21" />
				<g
   id="g24"
   style="stroke-width:2.3233">
					<polygon
   style="fill:#d1d3d4;stroke-width:2.3233"
   points="127.381,155.477 127.381,146.794 191.189,118.333 191.189,127.015 "
   id="polygon22" />
					<polygon
   style="fill:#d1d3d4;stroke-width:2.3233"
   points="130.645,168.286 130.645,159.602 187.924,134.036 187.924,142.718 "
   id="polygon23" />
					<polygon
   style="fill:#d1d3d4;stroke-width:2.3233"
   points="139.268,179.535 139.268,170.851 179.303,152.677 179.303,161.356 "
   id="polygon24" />
				</g>
				<g
   id="g37"
   style="stroke-width:2.3233">
					<g
   id="g26"
   style="stroke-width:2.3233">
						<polygon
   style="fill:#ffffff;stroke-width:2.3233"
   points="211.656,66.818 207.111,64.539 90.844,114.793 95.393,117.072 "
   id="polygon25" />
						<g
   id="g25"
   style="stroke-width:2.3233">
							<path
   style="fill:#eaccb7;stroke-width:2.3233"
   d="m 90.242,115.823 c 2.596,1.304 4.238,2.937 6.895,1.787 3.346,-1.444 6.691,-2.893 10.035,-4.337 13.234,-5.72 26.471,-11.442 39.707,-17.162 21.793,-9.421 43.588,-18.84 65.381,-28.259 0.816,-0.354 0.748,-1.691 0,-2.064 -2.598,-1.304 -4.238,-2.936 -6.893,-1.787 -3.346,1.444 -6.689,2.893 -10.035,4.337 -13.236,5.72 -26.473,11.441 -39.707,17.162 -21.797,9.421 -43.59,18.84 -65.383,28.259 -1.414,0.61 -0.193,2.672 1.205,2.064 20.348,-8.793 40.693,-17.587 61.039,-26.38 13.406,-5.795 26.814,-11.59 40.219,-17.385 3.918,-1.692 7.836,-3.386 11.754,-5.078 4.143,-1.79 2.4,-1.231 6.596,0.872 0,-0.688 0,-1.377 0,-2.064 -20.348,8.793 -40.693,17.586 -61.039,26.38 -13.406,5.795 -26.813,11.59 -40.217,17.384 -3.92,1.693 -7.836,3.387 -11.756,5.079 -4.139,1.79 -2.398,1.231 -6.596,-0.872 -1.373,-0.688 -2.584,1.375 -1.205,2.064 z"
   id="path25" />
						</g>
					</g>
					<g
   id="g28"
   style="stroke-width:2.3233">
						<polygon
   style="fill:#ffffff;stroke-width:2.3233"
   points="207.121,64.542 202.574,62.263 86.309,112.514 90.855,114.793 "
   id="polygon26" />
						<g
   id="g27"
   style="stroke-width:2.3233">
							<path
   style="fill:#eaccb7;stroke-width:2.3233"
   d="m 85.705,113.546 c 2.598,1.303 4.238,2.935 6.895,1.787 3.346,-1.446 6.691,-2.891 10.035,-4.338 13.236,-5.721 26.473,-11.441 39.707,-17.161 21.793,-9.419 43.59,-18.841 65.385,-28.261 0.815,-0.352 0.746,-1.689 0,-2.064 -2.598,-1.302 -4.24,-2.934 -6.896,-1.786 -3.346,1.446 -6.689,2.892 -10.035,4.338 -13.236,5.722 -26.473,11.441 -39.707,17.161 -21.795,9.42 -43.59,18.839 -65.383,28.26 -1.414,0.61 -0.193,2.67 1.205,2.064 20.348,-8.793 40.693,-17.589 61.039,-26.382 13.408,-5.795 26.814,-11.588 40.219,-17.382 3.918,-1.693 7.836,-3.387 11.754,-5.081 4.143,-1.789 2.4,-1.231 6.596,0.872 0,-0.688 0,-1.377 0,-2.064 -20.346,8.795 -40.691,17.588 -61.039,26.383 -13.406,5.793 -26.811,11.588 -40.217,17.381 -3.92,1.694 -7.836,3.389 -11.756,5.082 -4.141,1.791 -2.398,1.23 -6.596,-0.873 -1.374,-0.69 -2.585,1.372 -1.206,2.064 z"
   id="path26" />
						</g>
					</g>
					<g
   id="g30"
   style="stroke-width:2.3233">
						<polygon
   style="fill:#ffffff;stroke-width:2.3233"
   points="202.592,62.247 198.049,59.968 81.783,110.219 86.33,112.498 "
   id="polygon28" />
						<g
   id="g29"
   style="stroke-width:2.3233">
							<path
   style="fill:#eaccb7;stroke-width:2.3233"
   d="m 81.182,111.251 c 2.594,1.303 4.236,2.935 6.891,1.785 3.348,-1.444 6.691,-2.891 10.037,-4.337 13.234,-5.72 26.471,-11.44 39.705,-17.16 21.793,-9.419 43.588,-18.839 65.381,-28.26 0.816,-0.354 0.748,-1.688 0,-2.064 -2.596,-1.303 -4.234,-2.935 -6.889,-1.785 -3.346,1.444 -6.691,2.891 -10.037,4.337 -13.234,5.721 -26.471,11.44 -39.707,17.16 -21.795,9.42 -43.588,18.839 -65.381,28.26 -1.414,0.61 -0.193,2.67 1.205,2.064 20.346,-8.793 40.693,-17.587 61.039,-26.382 13.406,-5.793 26.813,-11.587 40.219,-17.382 3.918,-1.693 7.836,-3.387 11.754,-5.08 4.139,-1.788 2.396,-1.23 6.592,0.872 0,-0.688 0,-1.376 0,-2.064 -20.348,8.794 -40.693,17.587 -61.039,26.382 -13.404,5.793 -26.811,11.587 -40.215,17.381 -3.92,1.694 -7.836,3.389 -11.756,5.081 -4.141,1.79 -2.398,1.231 -6.594,-0.872 -1.375,-0.69 -2.586,1.373 -1.205,2.064 z"
   id="path28" />
						</g>
					</g>
					<g
   id="g32"
   style="stroke-width:2.3233">
						<polygon
   style="fill:#ffffff;stroke-width:2.3233"
   points="198.053,59.954 193.506,57.673 77.24,107.924 81.787,110.203 "
   id="polygon30" />
						<g
   id="g31"
   style="stroke-width:2.3233">
							<path
   style="fill:#eaccb7;stroke-width:2.3233"
   d="m 76.639,108.958 c 2.596,1.3 4.236,2.932 6.893,1.783 3.346,-1.444 6.691,-2.891 10.037,-4.337 13.234,-5.72 26.469,-11.44 39.707,-17.16 21.793,-9.419 43.586,-18.839 65.381,-28.258 0.814,-0.353 0.748,-1.69 0,-2.064 -2.598,-1.302 -4.238,-2.937 -6.895,-1.787 -3.346,1.444 -6.691,2.893 -10.037,4.337 -13.234,5.721 -26.469,11.44 -39.707,17.162 -21.793,9.419 -43.586,18.838 -65.379,28.26 -1.414,0.609 -0.193,2.668 1.203,2.064 20.348,-8.794 40.693,-17.589 61.039,-26.382 13.406,-5.794 26.813,-11.589 40.219,-17.384 3.918,-1.693 7.836,-3.386 11.754,-5.078 4.141,-1.79 2.398,-1.231 6.598,0.872 0,-0.688 0,-1.376 0,-2.064 -20.348,8.793 -40.693,17.587 -61.039,26.38 -13.406,5.793 -26.812,11.587 -40.219,17.381 -3.918,1.694 -7.836,3.387 -11.754,5.079 -4.141,1.79 -2.398,1.231 -6.598,-0.868 -1.373,-0.691 -2.584,1.373 -1.203,2.064 z"
   id="path30" />
						</g>
					</g>
					<g
   id="g34"
   style="stroke-width:2.3233">
						<polygon
   style="fill:#ffffff;stroke-width:2.3233"
   points="193.693,57.673 189.146,55.397 72.881,105.647 77.43,107.927 "
   id="polygon32" />
						<g
   id="g33"
   style="stroke-width:2.3233">
							<path
   style="fill:#eaccb7;stroke-width:2.3233"
   d="m 72.277,106.679 c 2.596,1.303 4.238,2.936 6.895,1.787 3.346,-1.445 6.691,-2.893 10.037,-4.338 13.234,-5.72 26.471,-11.441 39.705,-17.162 21.795,-9.42 43.588,-18.84 65.383,-28.259 0.816,-0.354 0.748,-1.69 0,-2.064 -2.598,-1.302 -4.24,-2.934 -6.895,-1.786 -3.346,1.446 -6.689,2.892 -10.035,4.338 -13.236,5.72 -26.473,11.441 -39.707,17.162 -21.795,9.419 -43.588,18.838 -65.383,28.258 -1.412,0.609 -0.193,2.671 1.207,2.064 20.346,-8.794 40.691,-17.587 61.037,-26.381 13.406,-5.795 26.814,-11.588 40.219,-17.383 3.918,-1.692 7.836,-3.386 11.754,-5.08 4.141,-1.789 2.4,-1.229 6.596,0.872 0,-0.688 0,-1.376 0,-2.064 -20.346,8.793 -40.691,17.587 -61.037,26.38 -13.406,5.795 -26.812,11.59 -40.219,17.385 -3.918,1.692 -7.834,3.386 -11.754,5.078 -4.141,1.791 -2.398,1.231 -6.596,-0.871 -1.373,-0.689 -2.586,1.373 -1.207,2.064 z"
   id="path32" />
						</g>
					</g>
					<g
   id="g36"
   style="stroke-width:2.3233">
						<polygon
   style="fill:#ffffff;stroke-width:2.3233"
   points="189.199,55.366 184.65,53.087 68.387,103.337 72.932,105.616 "
   id="polygon34" />
						<g
   id="g35"
   style="stroke-width:2.3233">
							<path
   style="fill:#eaccb7;stroke-width:2.3233"
   d="m 67.783,104.369 c 2.598,1.302 4.238,2.934 6.893,1.786 3.346,-1.445 6.691,-2.892 10.037,-4.338 13.234,-5.72 26.471,-11.439 39.707,-17.16 21.795,-9.419 43.588,-18.84 65.381,-28.26 0.816,-0.352 0.75,-1.688 0,-2.064 -2.596,-1.301 -4.236,-2.933 -6.893,-1.785 -3.346,1.445 -6.691,2.891 -10.037,4.338 -13.234,5.72 -26.471,11.44 -39.707,17.16 -21.793,9.419 -43.586,18.84 -65.381,28.259 -1.412,0.61 -0.191,2.67 1.205,2.064 20.348,-8.793 40.693,-17.587 61.039,-26.38 13.406,-5.795 26.813,-11.588 40.219,-17.383 3.918,-1.694 7.836,-3.387 11.754,-5.078 4.139,-1.791 2.398,-1.232 6.596,0.869 0,-0.688 0,-1.376 0,-2.064 -20.346,8.794 -40.693,17.588 -61.039,26.381 -13.406,5.795 -26.813,11.588 -40.219,17.383 -3.918,1.693 -7.836,3.387 -11.754,5.078 -4.141,1.791 -2.398,1.233 -6.596,-0.87 -1.373,-0.69 -2.584,1.373 -1.205,2.064 z"
   id="path34" />
						</g>
					</g>
				</g>
				<g
   id="g38"
   style="stroke-width:2.3233">
					<polygon
   style="fill:#34507b;stroke-width:2.3233"
   points="68.305,290.793 68.273,103.354 95.477,117.085 95.492,304.309 "
   id="polygon37" />
				</g>
				<polygon
   style="fill:#ffffff;stroke-width:2.3233"
   points="85.406,292.101 75.184,287.019 75.174,120.665 85.4,125.828 "
   id="polygon38" />
			</g>
			<g
   id="g59"
   style="stroke-width:2.3233">
				<polygon
   style="fill:#217caf;stroke-width:2.3233"
   points="245.438,236.325 124.984,286.575 125.107,101.173 245.438,49.116 "
   id="polygon39" />
				<g
   id="g40"
   style="stroke-width:2.3233">
					<polygon
   style="fill:#217caf;stroke-width:2.3233"
   points="152.203,304.309 152.203,117.104 273.889,64.387 273.889,251.595 "
   id="polygon40" />
				</g>
				<polygon
   style="fill:#ffffff;stroke-width:2.3233"
   points="258.125,162.425 172.895,199.345 172.895,137.246 258.125,100.326 "
   id="polygon41" />
				<g
   id="g44"
   style="stroke-width:2.3233">
					<polygon
   style="fill:#d1d3d4;stroke-width:2.3233"
   points="184.107,155.477 184.107,146.794 247.918,118.333 247.918,127.015 "
   id="polygon42" />
					<polygon
   style="fill:#d1d3d4;stroke-width:2.3233"
   points="187.373,168.286 187.373,159.602 244.65,134.036 244.65,142.718 "
   id="polygon43" />
					<polygon
   style="fill:#d1d3d4;stroke-width:2.3233"
   points="195.994,179.535 195.994,170.851 236.031,152.677 236.031,161.356 "
   id="polygon44" />
				</g>
				<g
   id="g57"
   style="stroke-width:2.3233">
					<g
   id="g46"
   style="stroke-width:2.3233">
						<polygon
   style="fill:#ffffff;stroke-width:2.3233"
   points="268.582,66.818 264.035,64.539 147.77,114.793 152.318,117.072 "
   id="polygon45" />
						<g
   id="g45"
   style="stroke-width:2.3233">
							<path
   style="fill:#eaccb7;stroke-width:2.3233"
   d="m 147.168,115.823 c 2.596,1.304 4.236,2.937 6.893,1.787 3.346,-1.444 6.691,-2.893 10.037,-4.337 13.234,-5.72 26.471,-11.442 39.707,-17.162 21.793,-9.421 43.586,-18.84 65.381,-28.259 0.814,-0.354 0.748,-1.691 0,-2.064 -2.598,-1.304 -4.238,-2.937 -6.895,-1.787 -3.346,1.444 -6.692,2.893 -10.035,4.337 -13.236,5.72 -26.471,11.441 -39.709,17.162 -21.793,9.421 -43.586,18.84 -65.379,28.259 -1.414,0.61 -0.193,2.672 1.205,2.064 20.346,-8.793 40.691,-17.587 61.037,-26.38 13.406,-5.795 26.813,-11.59 40.219,-17.385 3.918,-1.692 7.836,-3.386 11.754,-5.078 4.141,-1.79 2.4,-1.231 6.598,0.872 0,-0.688 0,-1.377 0,-2.064 -20.348,8.793 -40.693,17.586 -61.039,26.38 -13.406,5.795 -26.813,11.59 -40.219,17.384 -3.918,1.693 -7.836,3.387 -11.754,5.079 -4.141,1.79 -2.398,1.231 -6.596,-0.872 -1.373,-0.688 -2.586,1.375 -1.205,2.064 z"
   id="path45" />
						</g>
					</g>
					<g
   id="g48"
   style="stroke-width:2.3233">
						<polygon
   style="fill:#ffffff;stroke-width:2.3233"
   points="264.047,64.542 259.5,62.263 143.232,112.514 147.781,114.793 "
   id="polygon46" />
						<g
   id="g47"
   style="stroke-width:2.3233">
							<path
   style="fill:#eaccb7;stroke-width:2.3233"
   d="m 142.631,113.546 c 2.596,1.303 4.238,2.935 6.893,1.787 3.348,-1.446 6.693,-2.891 10.037,-4.338 13.236,-5.721 26.471,-11.441 39.707,-17.161 21.793,-9.419 43.588,-18.841 65.383,-28.261 0.816,-0.352 0.748,-1.689 0,-2.064 -2.596,-1.302 -4.238,-2.934 -6.895,-1.786 -3.346,1.446 -6.689,2.892 -10.035,4.338 -13.236,5.722 -26.473,11.441 -39.709,17.161 -21.795,9.42 -43.588,18.839 -65.381,28.26 -1.414,0.61 -0.193,2.67 1.205,2.064 20.348,-8.793 40.693,-17.589 61.039,-26.382 13.406,-5.795 26.813,-11.588 40.219,-17.382 3.918,-1.693 7.836,-3.387 11.754,-5.081 4.143,-1.789 2.4,-1.231 6.596,0.872 0,-0.688 0,-1.377 0,-2.064 -20.346,8.795 -40.691,17.588 -61.039,26.383 -13.406,5.793 -26.811,11.588 -40.217,17.381 -3.92,1.694 -7.836,3.389 -11.756,5.082 -4.141,1.791 -2.398,1.23 -6.596,-0.873 -1.373,-0.69 -2.584,1.372 -1.205,2.064 z"
   id="path46" />
						</g>
					</g>
					<g
   id="g50"
   style="stroke-width:2.3233">
						<polygon
   style="fill:#ffffff;stroke-width:2.3233"
   points="259.522,62.247 254.975,59.968 138.709,110.219 143.254,112.498 "
   id="polygon48" />
						<g
   id="g49"
   style="stroke-width:2.3233">
							<path
   style="fill:#eaccb7;stroke-width:2.3233"
   d="m 138.105,111.251 c 2.596,1.303 4.236,2.935 6.891,1.785 3.346,-1.444 6.693,-2.891 10.037,-4.337 13.236,-5.72 26.471,-11.44 39.707,-17.16 21.795,-9.419 43.59,-18.839 65.383,-28.26 0.816,-0.354 0.75,-1.688 0,-2.064 -2.596,-1.303 -4.236,-2.935 -6.893,-1.785 -3.346,1.444 -6.689,2.891 -10.035,4.337 -13.234,5.721 -26.473,11.44 -39.707,17.16 -21.795,9.42 -43.588,18.839 -65.383,28.26 -1.412,0.61 -0.193,2.67 1.205,2.064 20.348,-8.793 40.695,-17.587 61.041,-26.382 13.406,-5.793 26.813,-11.587 40.217,-17.382 3.92,-1.693 7.836,-3.387 11.756,-5.08 4.141,-1.788 2.398,-1.23 6.594,0.872 0,-0.688 0,-1.376 0,-2.064 -20.346,8.794 -40.693,17.587 -61.039,26.382 -13.406,5.793 -26.813,11.587 -40.219,17.381 -3.92,1.694 -7.836,3.389 -11.754,5.081 -4.141,1.788 -2.4,1.231 -6.596,-0.872 -1.372,-0.69 -2.583,1.373 -1.205,2.064 z"
   id="path48" />
						</g>
					</g>
					<g
   id="g52"
   style="stroke-width:2.3233">
						<polygon
   style="fill:#ffffff;stroke-width:2.3233"
   points="254.979,59.954 250.43,57.673 134.166,107.924 138.711,110.203 "
   id="polygon50" />
						<g
   id="g51"
   style="stroke-width:2.3233">
							<path
   style="fill:#eaccb7;stroke-width:2.3233"
   d="m 133.563,108.958 c 2.598,1.301 4.238,2.932 6.893,1.783 3.346,-1.444 6.69,-2.891 10.037,-4.337 13.234,-5.72 26.471,-11.44 39.707,-17.16 21.795,-9.419 43.588,-18.839 65.381,-28.258 0.816,-0.353 0.75,-1.69 0,-2.064 -2.596,-1.302 -4.238,-2.937 -6.893,-1.787 -3.346,1.444 -6.693,2.893 -10.037,4.337 -13.234,5.721 -26.471,11.44 -39.707,17.162 -21.793,9.419 -43.586,18.838 -65.381,28.26 -1.414,0.609 -0.193,2.668 1.205,2.064 20.348,-8.794 40.693,-17.589 61.039,-26.382 13.406,-5.794 26.813,-11.589 40.217,-17.384 3.92,-1.693 7.836,-3.386 11.756,-5.078 4.141,-1.79 2.398,-1.231 6.596,0.872 0,-0.688 0,-1.376 0,-2.064 -20.346,8.793 -40.693,17.587 -61.039,26.38 -13.406,5.793 -26.813,11.587 -40.219,17.381 -3.918,1.694 -7.836,3.387 -11.754,5.079 -4.141,1.79 -2.398,1.233 -6.596,-0.868 -1.373,-0.691 -2.584,1.373 -1.205,2.064 z"
   id="path50" />
						</g>
					</g>
					<g
   id="g54"
   style="stroke-width:2.3233">
						<polygon
   style="fill:#ffffff;stroke-width:2.3233"
   points="250.422,57.673 245.873,55.397 129.609,105.647 134.156,107.927 "
   id="polygon52" />
						<g
   id="g53"
   style="stroke-width:2.3233">
							<path
   style="fill:#eaccb7;stroke-width:2.3233"
   d="m 129.008,106.679 c 2.596,1.303 4.238,2.935 6.893,1.787 3.346,-1.445 6.689,-2.893 10.035,-4.338 13.236,-5.72 26.473,-11.441 39.705,-17.162 21.795,-9.42 43.59,-18.84 65.385,-28.259 0.816,-0.354 0.746,-1.69 0,-2.064 -2.6,-1.302 -4.242,-2.934 -6.896,-1.786 -3.346,1.446 -6.689,2.892 -10.035,4.338 -13.234,5.72 -26.471,11.441 -39.705,17.162 -21.795,9.419 -43.588,18.838 -65.381,28.258 -1.414,0.609 -0.193,2.671 1.205,2.064 20.348,-8.794 40.693,-17.587 61.037,-26.381 13.406,-5.795 26.813,-11.588 40.217,-17.383 3.92,-1.692 7.836,-3.386 11.756,-5.08 4.139,-1.789 2.398,-1.229 6.594,0.872 0,-0.688 0,-1.376 0,-2.064 -20.346,8.793 -40.691,17.587 -61.037,26.38 -13.406,5.795 -26.813,11.59 -40.217,17.385 -3.92,1.692 -7.836,3.386 -11.756,5.078 -4.141,1.791 -2.398,1.231 -6.594,-0.871 -1.374,-0.689 -2.585,1.372 -1.206,2.064 z"
   id="path52" />
						</g>
					</g>
					<g
   id="g56"
   style="stroke-width:2.3233">
						<polygon
   style="fill:#ffffff;stroke-width:2.3233"
   points="245.926,55.366 241.379,53.087 125.113,103.337 129.66,105.616 "
   id="polygon54" />
						<g
   id="g55"
   style="stroke-width:2.3233">
							<path
   style="fill:#eaccb7;stroke-width:2.3233"
   d="m 124.512,104.369 c 2.596,1.302 4.238,2.934 6.892,1.786 3.346,-1.445 6.689,-2.892 10.035,-4.338 13.234,-5.72 26.473,-11.439 39.707,-17.16 21.795,-9.419 43.588,-18.84 65.383,-28.26 0.814,-0.352 0.748,-1.688 0,-2.064 -2.598,-1.301 -4.238,-2.933 -6.895,-1.785 -3.346,1.445 -6.691,2.891 -10.035,4.338 -13.236,5.72 -26.471,11.44 -39.707,17.16 -21.795,9.419 -43.588,18.84 -65.381,28.259 -1.414,0.61 -0.193,2.67 1.205,2.064 20.346,-8.793 40.691,-17.587 61.037,-26.38 13.406,-5.795 26.814,-11.588 40.219,-17.383 3.918,-1.694 7.836,-3.387 11.754,-5.078 4.141,-1.791 2.4,-1.232 6.598,0.869 0,-0.688 0,-1.376 0,-2.064 -20.348,8.794 -40.695,17.588 -61.041,26.381 -13.406,5.795 -26.813,11.588 -40.217,17.383 -3.92,1.693 -7.836,3.387 -11.756,5.078 -4.139,1.791 -2.398,1.233 -6.594,-0.87 -1.372,-0.69 -2.585,1.373 -1.204,2.064 z"
   id="path54" />
						</g>
					</g>
				</g>
				<g
   id="g58"
   style="stroke-width:2.3233">
					<polygon
   style="fill:#217caf;stroke-width:2.3233"
   points="125.031,290.793 125,103.354 152.203,117.085 152.219,304.309 "
   id="polygon57" />
				</g>
				<polygon
   style="fill:#ffffff;stroke-width:2.3233"
   points="142.666,292.367 132.443,287.285 132.434,120.931 142.658,126.093 "
   id="polygon58" />
			</g>
			<g
   id="g75"
   style="stroke-width:2.3233">
				<polygon
   style="fill:#53c5d1;stroke-width:2.3233"
   points="303.824,236.325 183.369,286.575 183.492,101.173 303.824,49.116 "
   id="polygon59" />
				<g
   id="g72"
   style="stroke-width:2.3233">
					<g
   id="g61"
   style="stroke-width:2.3233">
						<polygon
   style="fill:#ffffff;stroke-width:2.3233"
   points="326.967,66.818 322.422,64.539 206.156,114.793 210.703,117.072 "
   id="polygon60" />
						<g
   id="g60"
   style="stroke-width:2.3233">
							<path
   style="fill:#eaccb7;stroke-width:2.3233"
   d="m 205.555,115.823 c 2.596,1.304 4.238,2.936 6.893,1.787 3.346,-1.444 6.689,-2.893 10.035,-4.337 13.234,-5.72 26.473,-11.442 39.705,-17.162 21.795,-9.421 43.59,-18.84 65.385,-28.259 0.815,-0.354 0.746,-1.691 0,-2.064 -2.598,-1.304 -4.238,-2.936 -6.895,-1.787 -3.346,1.444 -6.691,2.893 -10.035,4.337 -13.236,5.72 -26.471,11.441 -39.707,17.162 -21.795,9.421 -43.588,18.84 -65.381,28.259 -1.414,0.61 -0.193,2.672 1.205,2.064 20.346,-8.793 40.691,-17.587 61.037,-26.38 13.406,-5.795 26.814,-11.59 40.219,-17.385 3.918,-1.692 7.836,-3.386 11.754,-5.078 4.141,-1.79 2.4,-1.231 6.594,0.872 0,-0.688 0,-1.377 0,-2.064 -20.346,8.793 -40.691,17.586 -61.037,26.38 -13.406,5.795 -26.813,11.59 -40.217,17.384 -3.92,1.693 -7.836,3.387 -11.756,5.079 -4.141,1.79 -2.399,1.231 -6.594,-0.872 -1.373,-0.688 -2.586,1.373 -1.205,2.064 z"
   id="path60" />
						</g>
					</g>
					<g
   id="g63"
   style="stroke-width:2.3233">
						<polygon
   style="fill:#ffffff;stroke-width:2.3233"
   points="322.432,64.542 317.887,62.263 201.619,112.514 206.166,114.793 "
   id="polygon61" />
						<g
   id="g62"
   style="stroke-width:2.3233">
							<path
   style="fill:#eaccb7;stroke-width:2.3233"
   d="m 201.014,113.546 c 2.598,1.303 4.24,2.935 6.896,1.787 3.346,-1.446 6.689,-2.891 10.035,-4.338 13.236,-5.721 26.473,-11.441 39.707,-17.161 21.795,-9.419 43.59,-18.841 65.383,-28.261 0.816,-0.352 0.748,-1.689 0,-2.064 -2.598,-1.302 -4.238,-2.934 -6.893,-1.786 -3.346,1.446 -6.689,2.892 -10.035,4.338 -13.238,5.722 -26.473,11.441 -39.709,17.161 -21.795,9.42 -43.59,18.839 -65.385,28.26 -1.412,0.61 -0.193,2.67 1.209,2.064 20.346,-8.793 40.693,-17.589 61.039,-26.382 13.406,-5.795 26.813,-11.588 40.219,-17.382 3.916,-1.693 7.836,-3.387 11.754,-5.081 4.143,-1.789 2.4,-1.231 6.596,0.872 0,-0.688 0,-1.377 0,-2.064 -20.348,8.795 -40.695,17.588 -61.041,26.383 -13.406,5.793 -26.813,11.588 -40.217,17.381 -3.918,1.694 -7.836,3.389 -11.754,5.082 -4.143,1.791 -2.402,1.23 -6.596,-0.873 -1.374,-0.69 -2.585,1.372 -1.208,2.064 z"
   id="path61" />
						</g>
					</g>
					<g
   id="g65"
   style="stroke-width:2.3233">
						<polygon
   style="fill:#ffffff;stroke-width:2.3233"
   points="317.904,62.247 313.361,59.968 197.092,110.219 201.641,112.498 "
   id="polygon63" />
						<g
   id="g64"
   style="stroke-width:2.3233">
							<path
   style="fill:#eaccb7;stroke-width:2.3233"
   d="m 196.49,111.251 c 2.596,1.302 4.238,2.935 6.895,1.785 3.346,-1.444 6.691,-2.891 10.035,-4.337 13.234,-5.72 26.471,-11.44 39.707,-17.16 21.793,-9.419 43.588,-18.839 65.381,-28.26 0.816,-0.354 0.748,-1.688 0,-2.064 -2.596,-1.303 -4.234,-2.935 -6.891,-1.785 -3.346,1.444 -6.691,2.891 -10.037,4.337 -13.236,5.721 -26.471,11.44 -39.707,17.16 -21.795,9.42 -43.59,18.839 -65.383,28.26 -1.414,0.61 -0.193,2.67 1.205,2.064 20.348,-8.793 40.693,-17.587 61.039,-26.382 13.406,-5.793 26.814,-11.587 40.221,-17.382 3.918,-1.693 7.836,-3.387 11.752,-5.08 4.143,-1.788 2.4,-1.23 6.596,0.872 0,-0.688 0,-1.376 0,-2.064 -20.348,8.794 -40.693,17.587 -61.039,26.382 -13.406,5.793 -26.813,11.587 -40.217,17.381 -3.92,1.694 -7.836,3.389 -11.756,5.081 -4.139,1.79 -2.399,1.231 -6.596,-0.872 -1.373,-0.69 -2.584,1.373 -1.205,2.064 z"
   id="path63" />
						</g>
					</g>
					<g
   id="g67"
   style="stroke-width:2.3233">
						<polygon
   style="fill:#ffffff;stroke-width:2.3233"
   points="313.363,59.954 308.816,57.673 192.551,107.924 197.098,110.203 "
   id="polygon65" />
						<g
   id="g66"
   style="stroke-width:2.3233">
							<path
   style="fill:#eaccb7;stroke-width:2.3233"
   d="m 191.947,108.958 c 2.596,1.301 4.238,2.932 6.895,1.783 3.346,-1.444 6.691,-2.891 10.035,-4.337 13.236,-5.72 26.473,-11.44 39.707,-17.16 21.793,-9.419 43.588,-18.839 65.383,-28.258 0.816,-0.353 0.748,-1.69 0,-2.064 -2.596,-1.302 -4.238,-2.937 -6.895,-1.787 -3.346,1.444 -6.689,2.893 -10.035,4.337 -13.236,5.721 -26.473,11.44 -39.707,17.162 -21.795,9.419 -43.588,18.838 -65.383,28.26 -1.412,0.609 -0.193,2.668 1.207,2.064 20.346,-8.794 40.691,-17.589 61.037,-26.382 13.406,-5.794 26.813,-11.589 40.219,-17.384 3.918,-1.693 7.836,-3.386 11.754,-5.078 4.143,-1.79 2.4,-1.231 6.596,0.872 0,-0.688 0,-1.376 0,-2.064 -20.346,8.793 -40.691,17.587 -61.039,26.38 -13.406,5.793 -26.811,11.587 -40.217,17.381 -3.92,1.694 -7.836,3.387 -11.756,5.079 -4.139,1.79 -2.398,1.233 -6.594,-0.868 -1.373,-0.691 -2.586,1.373 -1.207,2.064 z"
   id="path65" />
						</g>
					</g>
					<g
   id="g69"
   style="stroke-width:2.3233">
						<polygon
   style="fill:#ffffff;stroke-width:2.3233"
   points="308.809,57.673 304.26,55.397 187.996,105.647 192.543,107.927 "
   id="polygon67" />
						<g
   id="g68"
   style="stroke-width:2.3233">
							<path
   style="fill:#eaccb7;stroke-width:2.3233"
   d="m 187.391,106.679 c 2.598,1.303 4.24,2.936 6.896,1.787 3.346,-1.445 6.689,-2.893 10.035,-4.338 13.236,-5.72 26.473,-11.441 39.707,-17.162 21.795,-9.42 43.588,-18.84 65.383,-28.259 0.816,-0.354 0.748,-1.69 0,-2.064 -2.598,-1.302 -4.24,-2.934 -6.896,-1.786 -3.346,1.446 -6.689,2.892 -10.035,4.338 -13.234,5.72 -26.473,11.441 -39.705,17.162 -21.795,9.419 -43.59,18.838 -65.385,28.258 -1.412,0.609 -0.191,2.671 1.209,2.064 20.346,-8.794 40.692,-17.587 61.037,-26.381 13.406,-5.795 26.813,-11.588 40.217,-17.383 3.92,-1.692 7.836,-3.386 11.756,-5.08 4.139,-1.789 2.398,-1.229 6.594,0.872 0,-0.688 0,-1.376 0,-2.064 -20.346,8.793 -40.689,17.587 -61.035,26.38 -13.408,5.795 -26.814,11.59 -40.219,17.385 -3.918,1.692 -7.836,3.386 -11.754,5.078 -4.143,1.791 -2.4,1.231 -6.596,-0.871 -1.375,-0.689 -2.586,1.373 -1.209,2.064 z"
   id="path67" />
						</g>
					</g>
					<g
   id="g71"
   style="stroke-width:2.3233">
						<polygon
   style="fill:#ffffff;stroke-width:2.3233"
   points="304.311,55.366 299.766,53.087 183.5,103.337 188.045,105.616 "
   id="polygon69" />
						<g
   id="g70"
   style="stroke-width:2.3233">
							<path
   style="fill:#eaccb7;stroke-width:2.3233"
   d="m 182.898,104.369 c 2.596,1.304 4.236,2.934 6.891,1.786 3.346,-1.445 6.691,-2.892 10.035,-4.338 13.236,-5.72 26.471,-11.439 39.707,-17.16 21.795,-9.419 43.588,-18.84 65.381,-28.26 0.816,-0.353 0.75,-1.688 0,-2.064 -2.596,-1.303 -4.236,-2.933 -6.891,-1.785 -3.346,1.445 -6.691,2.891 -10.035,4.338 -13.236,5.72 -26.471,11.44 -39.707,17.16 -21.795,9.419 -43.588,18.84 -65.381,28.259 -1.414,0.61 -0.193,2.67 1.205,2.064 20.348,-8.793 40.693,-17.587 61.037,-26.38 13.408,-5.795 26.814,-11.588 40.219,-17.383 3.918,-1.694 7.836,-3.387 11.754,-5.078 4.141,-1.791 2.4,-1.233 6.594,0.869 0,-0.688 0,-1.376 0,-2.064 -20.346,8.794 -40.691,17.588 -61.037,26.381 -13.406,5.795 -26.814,11.588 -40.219,17.383 -3.918,1.693 -7.836,3.387 -11.754,5.078 -4.141,1.791 -2.4,1.233 -6.594,-0.87 -1.373,-0.69 -2.583,1.373 -1.205,2.064 z"
   id="path69" />
						</g>
					</g>
				</g>
				<g
   id="g73"
   style="stroke-width:2.3233">
					<polygon
   style="fill:#53c5d1;stroke-width:2.3233"
   points="183.416,290.793 183.387,103.354 210.59,117.085 210.605,304.309 "
   id="polygon72" />
				</g>
				<polygon
   style="fill:#ffffff;stroke-width:2.3233"
   points="200.521,292.101 190.299,287.019 190.285,120.665 200.514,125.828 "
   id="polygon73" />
				<g
   id="g74"
   style="stroke-width:2.3233">
					<polygon
   style="fill:#53c5d1;stroke-width:2.3233"
   points="210.59,304.309 210.59,117.104 332.275,64.387 332.275,251.595 "
   id="polygon74" />
				</g>
			</g>
		</g>
		<g
   id="g78"
   style="stroke-width:2.3233">
			<path
   style="fill:#ffffff;stroke-width:2.3233"
   d="m 248.324,245.215 c 0,-30.05 24.357,-54.411 54.406,-54.411 30.049,0 54.408,24.361 54.408,54.411 0,30.048 -24.359,54.407 -54.408,54.407 -30.049,0 -54.406,-24.359 -54.406,-54.407 z"
   id="path76" />
			<g
   id="g77"
   style="stroke-width:2.3233">
				<path
   style="fill:#217caf;stroke-width:2.3233"
   d="m 253.904,245.215 c 0.547,-27.031 21.797,-48.283 48.826,-48.831 27.031,-0.547 48.297,22.623 48.828,48.831 0.547,27.027 -22.619,48.298 -48.828,48.827 -27.029,0.548 -48.294,-22.621 -48.826,-48.827 -0.145,-7.186 -11.305,-7.202 -11.16,0 0.67,33.152 26.834,59.317 59.986,59.987 33.154,0.671 59.338,-27.844 59.988,-59.987 0.672,-33.154 -27.842,-59.34 -59.988,-59.991 -33.152,-0.669 -59.336,27.846 -59.986,59.991 -0.144,7.198 11.016,7.186 11.16,0 z"
   id="path77" />
			</g>
		</g>
		<polygon
   style="fill:#34507b;stroke-width:2.3233"
   points="319.086,206.712 289.465,206.712 289.465,249.556 278.395,249.556 304.588,286.348 330.16,249.556 319.086,249.556 "
   id="polygon78" />
	</g>
	<polygon
   style="fill:#ffffff;stroke-width:2.3233"
   points="231.281,199.345 231.281,137.246 316.512,100.326 316.512,162.425 "
   id="polygon79" />
</g></g>
</svg>
